<svg width="220" height="65" viewBox="0 0 220 65" fill="none" xmlns="http://www.w3.org/2000/svg">
<path d="M17.288 33.624C12.168 33.624 8.168 32.248 5.288 29.496C2.408 26.744 0.968 22.856 0.968 17.832C0.968 14.408 1.64 11.384 2.984 8.76C4.36 6.136 6.296 4.12 8.792 2.712C11.288 1.272 14.168 0.551997 17.432 0.551997C20.088 0.551997 22.648 1.032 25.112 1.992L23.816 8.184C21.64 7.192 19.528 6.696 17.48 6.696C14.568 6.696 12.264 7.656 10.568 9.576C8.872 11.464 8.024 13.992 8.024 17.16C8.024 20.392 8.92 22.904 10.712 24.696C12.504 26.488 14.984 27.384 18.152 27.384C20.232 27.384 22.248 27.048 24.2 26.376L25.256 32.28C22.92 33.176 20.264 33.624 17.288 33.624ZM30.668 1.032C31.628 0.999998 33.42 0.983997 36.044 0.983997C38.7 0.983997 40.508 0.999998 41.468 1.032C45.116 1.16 47.836 2.056 49.628 3.72C51.42 5.352 52.316 7.56 52.316 10.344C52.316 12.712 51.708 14.728 50.492 16.392C49.308 18.024 47.644 19.096 45.5 19.608C46.172 20.152 46.86 20.904 47.564 21.864C48.268 22.792 49.244 24.248 50.492 26.232C51.804 28.312 53.132 30.568 54.476 33H46.412L40.988 22.92C40.412 21.864 39.884 21.208 39.404 20.952C38.956 20.664 38.268 20.52 37.34 20.52V33H30.668V1.032ZM40.316 15.192C41.948 15.192 43.228 14.776 44.156 13.944C45.116 13.112 45.596 11.992 45.596 10.584C45.596 9.304 45.18 8.328 44.348 7.656C43.516 6.984 42.3 6.648 40.7 6.648H37.34V15.192H40.316ZM57.7194 1.032H77.1594V7.08H64.5834V13.464H74.9994V19.32H64.5834V26.952H77.1594V33H57.7194V1.032ZM91.8605 1.032H100.213L112.069 33H104.869L102.277 25.704H89.7005L87.2525 33H80.1485L91.8605 1.032ZM100.213 19.752L95.8925 7.512L91.7165 19.752H100.213ZM119.426 7.08H110.69V1.032H135.074V7.08H126.434V33H119.426V7.08ZM140.275 1.032H147.235V33H140.275V1.032ZM151.449 1.032H159.129L166.713 25.416L174.249 1.032H181.401L170.649 33H162.249L151.449 1.032ZM185.219 1.032H204.659V7.08H192.083V13.464H202.499V19.32H192.083V26.952H204.659V33H185.219V1.032Z" fill="white"/>
<path fill-rule="evenodd" clip-rule="evenodd" d="M77 44C75.8954 44 75 44.8954 75 46C75 47.1046 75.8954 48 77 48H119.864L118.35 64H122.22L123.48 49.9L128.79 64.54L132.36 64.21L137.64 49.96L139.02 64H142.92L141.09 44.02H135.69L130.74 58.36L125.64 44.02H122.284C122.191 44.0068 122.096 44 122 44H77ZM149.284 63.43C150.484 64.11 151.864 64.45 153.424 64.45C154.964 64.45 156.324 64.11 157.504 63.43C158.704 62.73 159.624 61.76 160.264 60.52C160.924 59.26 161.254 57.82 161.254 56.2C161.254 54.6 160.924 53.19 160.264 51.97C159.624 50.75 158.704 49.81 157.504 49.15C156.324 48.47 154.954 48.13 153.394 48.13C151.834 48.13 150.454 48.47 149.254 49.15C148.074 49.83 147.154 50.79 146.494 52.03C145.854 53.25 145.534 54.67 145.534 56.29C145.534 57.91 145.864 59.34 146.524 60.58C147.184 61.8 148.104 62.75 149.284 63.43ZM155.974 59.56C155.334 60.38 154.474 60.79 153.394 60.79C152.314 60.79 151.444 60.38 150.784 59.56C150.144 58.72 149.824 57.62 149.824 56.26C149.824 54.9 150.144 53.82 150.784 53.02C151.444 52.2 152.314 51.79 153.394 51.79C154.474 51.79 155.334 52.2 155.974 53.02C156.634 53.82 156.964 54.9 156.964 56.26C156.964 57.62 156.634 58.72 155.974 59.56ZM167.063 48.19L162.443 48.61L167.903 64H172.853L178.283 48.55H173.753L170.483 59.32L167.063 48.19ZM181.59 62.29C183.03 63.73 185 64.45 187.5 64.45C188.5 64.45 189.48 64.33 190.44 64.09C191.42 63.87 192.31 63.55 193.11 63.13L192.42 59.74C191.82 60.06 191.12 60.32 190.32 60.52C189.52 60.7 188.75 60.79 188.01 60.79C186.79 60.79 185.82 60.52 185.1 59.98C184.38 59.42 183.92 58.61 183.72 57.55H193.92C193.94 57.33 193.95 56.99 193.95 56.53C193.95 53.81 193.35 51.73 192.15 50.29C190.95 48.85 189.23 48.13 186.99 48.13C185.47 48.13 184.14 48.46 183 49.12C181.88 49.78 181.01 50.73 180.39 51.97C179.77 53.19 179.46 54.63 179.46 56.29C179.46 58.85 180.17 60.85 181.59 62.29ZM189 52.33C189.54 52.83 189.84 53.51 189.9 54.37H183.69C183.83 53.49 184.17 52.8 184.71 52.3C185.27 51.8 185.98 51.55 186.84 51.55C187.74 51.55 188.46 51.81 189 52.33ZM201.434 48.55H197.204V64H201.434V54.94C201.934 54.32 202.314 53.86 202.574 53.56C202.854 53.26 203.164 53.02 203.504 52.84C203.864 52.66 204.274 52.57 204.734 52.57C205.054 52.57 205.474 52.64 205.994 52.78L206.444 48.22C206.204 48.14 205.904 48.1 205.544 48.1C204.684 48.1 203.964 48.34 203.384 48.82C202.824 49.3 202.254 50.05 201.674 51.07H201.434V48.55ZM210.424 64.15C211.344 64.35 212.294 64.45 213.274 64.45C215.214 64.45 216.774 64.04 217.954 63.22C219.134 62.4 219.724 61.17 219.724 59.53C219.724 58.55 219.514 57.75 219.094 57.13C218.674 56.49 218.184 56.01 217.624 55.69C217.064 55.37 216.364 55.04 215.524 54.7C215.424 54.66 215.074 54.53 214.474 54.31C213.714 54.05 213.174 53.82 212.854 53.62C212.534 53.42 212.374 53.12 212.374 52.72C212.374 52.3 212.564 51.98 212.944 51.76C213.344 51.54 213.874 51.43 214.534 51.43C215.174 51.43 215.854 51.54 216.574 51.76C217.314 51.96 217.974 52.23 218.554 52.57L219.124 49C217.484 48.42 215.924 48.13 214.444 48.13C212.564 48.13 211.034 48.57 209.854 49.45C208.694 50.31 208.114 51.52 208.114 53.08C208.114 54.06 208.334 54.85 208.774 55.45C209.214 56.05 209.704 56.5 210.244 56.8C210.784 57.08 211.484 57.38 212.344 57.7L213.154 58C214.054 58.32 214.664 58.59 214.984 58.81C215.304 59.01 215.464 59.3 215.464 59.68C215.464 60.16 215.234 60.53 214.774 60.79C214.314 61.03 213.744 61.15 213.064 61.15C212.344 61.15 211.574 61.02 210.754 60.76C209.934 60.5 209.184 60.16 208.504 59.74L208.114 63.34C208.754 63.68 209.524 63.95 210.424 64.15Z" fill="white"/>
</svg>
