<svg width="26" height="20" viewBox="0 0 26 20" fill="none" xmlns="http://www.w3.org/2000/svg">
<path d="M18.7778 7.14286C18.7778 3.19643 14.5753 0 9.38889 0C4.20243 0 0 3.19643 0 7.14286C0 8.67411 0.636458 10.0848 1.71528 11.25C1.11042 12.5982 0.112847 13.6696 0.0993056 13.683C0 13.7857 -0.0270833 13.9375 0.0315972 14.0714C0.0902778 14.2054 0.216667 14.2857 0.361111 14.2857C2.01319 14.2857 3.3809 13.7366 4.36493 13.1696C5.8184 13.8705 7.53819 14.2857 9.38889 14.2857C14.5753 14.2857 18.7778 11.0893 18.7778 7.14286ZM24.2847 16.9643C25.3635 15.8036 26 14.3884 26 12.8571C26 9.87054 23.5851 7.3125 20.1635 6.24554C20.2042 6.54018 20.2222 6.83929 20.2222 7.14286C20.2222 11.8705 15.3608 15.7143 9.38889 15.7143C8.90139 15.7143 8.42743 15.6786 7.95799 15.6295C9.37986 18.1964 12.7201 20 16.6111 20C18.4618 20 20.1816 19.5893 21.6351 18.8839C22.6191 19.4509 23.9868 20 25.6389 20C25.7833 20 25.9142 19.9152 25.9684 19.7857C26.0271 19.6563 26 19.5045 25.9007 19.3973C25.8872 19.3839 24.8896 18.317 24.2847 16.9643Z" fill="#021470"/>
</svg>
