<?xml version="1.0" standalone="no"?>
<!DOCTYPE svg PUBLIC "-//W3C//DTD SVG 20010904//EN"
 "http://www.w3.org/TR/2001/REC-SVG-20010904/DTD/svg10.dtd">
<svg version="1.0" xmlns="http://www.w3.org/2000/svg"
 width="22.000000pt" height="16.000000pt" viewBox="0 0 22.000000 16.000000"
 preserveAspectRatio="xMidYMid meet">

<g transform="translate(0.000000,16.000000) scale(0.100000,-0.100000)"
fill="#000000" stroke="none">
<path d="M81 136 c-16 -19 2 -56 28 -56 28 0 47 28 34 48 -13 22 -47 27 -62 8z"/>
<path d="M17 123 c-3 -5 -2 -15 3 -22 10 -17 43 -6 38 12 -6 15 -34 22 -41 10z"/>
<path d="M167 123 c-3 -5 -2 -15 3 -22 10 -17 43 -6 38 12 -6 15 -34 22 -41
10z"/>
<path d="M12 68 c-17 -17 -15 -28 6 -28 9 0 23 9 30 20 10 17 10 20 -6 20 -10
0 -23 -5 -30 -12z"/>
<path d="M172 60 c16 -24 53 -28 44 -4 -3 9 -6 18 -6 20 0 2 -11 4 -25 4 -23
0 -24 -2 -13 -20z"/>
<path d="M59 54 c-6 -7 -9 -21 -7 -31 5 -26 105 -32 115 -7 11 29 -10 48 -56
49 -23 1 -46 -5 -52 -11z"/>
</g>
</svg>
