<svg width="22" height="16" viewBox="0 0 22 16" fill="none" xmlns="http://www.w3.org/2000/svg">
<path d="M3.54975 7.06631C4.72863 7.06631 5.68709 6.10784 5.68709 4.92897C5.68709 3.75009 4.72863 2.79163 3.54975 2.79163C2.37088 2.79163 1.41242 3.75009 1.41242 4.92897C1.41242 6.10784 2.37088 7.06631 3.54975 7.06631ZM18.5111 7.06631C19.69 7.06631 20.6484 6.10784 20.6484 4.92897C20.6484 3.75009 19.69 2.79163 18.5111 2.79163C17.3322 2.79163 16.3738 3.75009 16.3738 4.92897C16.3738 6.10784 17.3322 7.06631 18.5111 7.06631ZM19.5798 8.13497H17.4424C16.8547 8.13497 16.3237 8.37208 15.9363 8.75614C17.2821 9.49419 18.2373 10.8267 18.4443 12.4096H20.6484C21.2396 12.4096 21.7171 11.9321 21.7171 11.341V10.2723C21.7171 9.09344 20.7587 8.13497 19.5798 8.13497ZM11.0304 8.13497C13.0976 8.13497 14.7708 6.46184 14.7708 4.39464C14.7708 2.32743 13.0976 0.654297 11.0304 0.654297C8.96323 0.654297 7.29009 2.32743 7.29009 4.39464C7.29009 6.46184 8.96323 8.13497 11.0304 8.13497ZM13.5952 9.20364H13.318C12.6234 9.5376 11.852 9.73798 11.0304 9.73798C10.2089 9.73798 9.44079 9.5376 8.74281 9.20364H8.46563C6.34165 9.20364 4.61842 10.9269 4.61842 13.0508V14.0126C4.61842 14.8976 5.33643 15.6157 6.22142 15.6157H15.8394C16.7244 15.6157 17.4424 14.8976 17.4424 14.0126V13.0508C17.4424 10.9269 15.7192 9.20364 13.5952 9.20364ZM6.12458 8.75614C5.73718 8.37208 5.20619 8.13497 4.61842 8.13497H2.48109C1.30221 8.13497 0.34375 9.09344 0.34375 10.2723V11.341C0.34375 11.9321 0.821311 12.4096 1.41242 12.4096H3.61321C3.8236 10.8267 4.77872 9.49419 6.12458 8.75614Z" fill="#021470"/>
</svg>
