<svg width="22" height="25" viewBox="0 0 22 25" fill="none" xmlns="http://www.w3.org/2000/svg">
<path d="M21.2891 7.8125C21.6113 7.8125 21.875 7.54883 21.875 7.22656V5.27344C21.875 4.95117 21.6113 4.6875 21.2891 4.6875H20.3125V2.34375C20.3125 1.0498 19.2627 0 17.9688 0H2.34375C1.0498 0 0 1.0498 0 2.34375V22.6562C0 23.9502 1.0498 25 2.34375 25H17.9688C19.2627 25 20.3125 23.9502 20.3125 22.6562V20.3125H21.2891C21.6113 20.3125 21.875 20.0488 21.875 19.7266V17.7734C21.875 17.4512 21.6113 17.1875 21.2891 17.1875H20.3125V14.0625H21.2891C21.6113 14.0625 21.875 13.7988 21.875 13.4766V11.5234C21.875 11.2012 21.6113 10.9375 21.2891 10.9375H20.3125V7.8125H21.2891ZM10.1562 6.25C11.8799 6.25 13.2812 7.65137 13.2812 9.375C13.2812 11.0986 11.8799 12.5 10.1562 12.5C8.43262 12.5 7.03125 11.0986 7.03125 9.375C7.03125 7.65137 8.43262 6.25 10.1562 6.25ZM15.625 17.8125C15.625 18.3301 15.1367 18.75 14.5312 18.75H5.78125C5.17578 18.75 4.6875 18.3301 4.6875 17.8125V16.875C4.6875 15.3223 6.15723 14.0625 7.96875 14.0625H8.21289C8.81348 14.3115 9.46777 14.4531 10.1562 14.4531C10.8447 14.4531 11.5039 14.3115 12.0996 14.0625H12.3438C14.1553 14.0625 15.625 15.3223 15.625 16.875V17.8125Z" fill="#021470"/>
</svg>
