<?xml version="1.0" standalone="no"?>
<!DOCTYPE svg PUBLIC "-//W3C//DTD SVG 20010904//EN"
 "http://www.w3.org/TR/2001/REC-SVG-20010904/DTD/svg10.dtd">
<svg version="1.0" xmlns="http://www.w3.org/2000/svg"
 width="884.000000pt" height="884.000000pt" viewBox="0 0 884.000000 884.000000"
 preserveAspectRatio="xMidYMid meet">

<g transform="translate(0.000000,884.000000) scale(0.100000,-0.100000)"
fill="#000000" stroke="none">
<path d="M4119 8819 c-1364 -92 -2623 -825 -3374 -1964 -693 -1050 -907 -2322
-596 -3537 52 -203 90 -320 168 -518 480 -1218 1479 -2162 2727 -2575 264 -87
588 -157 916 -197 69 -9 230 -13 470 -13 403 1 543 13 855 76 1220 244 2288
998 2924 2064 321 540 515 1110 596 1755 22 175 31 640 16 837 -62 797 -327
1542 -778 2190 -256 368 -614 739 -972 1008 -847 636 -1895 946 -2952 874z
m612 -59 c926 -71 1776 -414 2479 -1001 895 -747 1450 -1812 1550 -2979 14
-161 14 -571 0 -725 -52 -575 -195 -1083 -446 -1585 -649 -1297 -1901 -2185
-3339 -2370 -1133 -145 -2281 161 -3187 852 -1000 762 -1613 1894 -1709 3158
-14 191 -6 602 15 790 60 509 194 969 416 1425 281 576 683 1080 1185 1484
689 555 1505 878 2400 950 148 12 482 12 636 1z"/>
<path d="M4005 8695 c-726 -77 -1374 -308 -1960 -698 -592 -395 -1064 -911
-1407 -1542 -556 -1020 -666 -2274 -298 -3385 129 -387 326 -782 555 -1109
253 -361 587 -707 935 -971 532 -401 1141 -672 1790 -794 535 -101 1110 -99
1635 5 1193 237 2219 959 2850 2004 688 1138 804 2538 314 3790 -428 1094
-1319 1986 -2416 2418 -335 133 -661 217 -1038 268 -197 27 -760 35 -960 14z
m783 -679 c980 -130 1825 -620 2419 -1403 48 -62 84 -115 82 -117 -2 -2 -48
21 -101 51 -77 43 -110 69 -160 126 -274 314 -464 483 -763 682 -443 295 -927
476 -1470 551 -158 21 -572 30 -735 15 -600 -55 -1140 -243 -1625 -566 -405
-269 -715 -580 -980 -980 -300 -455 -477 -932 -552 -1491 -22 -164 -25 -647
-5 -804 77 -607 278 -1142 605 -1605 226 -320 535 -630 847 -851 478 -337
1019 -542 1625 -615 145 -18 605 -18 750 0 711 85 1312 343 1861 798 123 101
364 347 466 474 l76 95 67 13 c37 6 69 11 70 9 6 -6 -177 -233 -280 -348 -290
-323 -696 -624 -1097 -815 -342 -162 -698 -267 -1088 -320 -160 -22 -573 -31
-752 -16 -1248 106 -2346 853 -2908 1980 -178 357 -292 737 -346 1153 -21 170
-29 530 -15 703 40 478 149 878 356 1300 186 380 414 695 711 985 598 583
1334 924 2179 1009 139 14 619 6 763 -13z m-117 -156 c673 -68 1290 -318 1814
-737 112 -89 380 -344 418 -397 12 -16 17 -27 11 -24 -75 45 -368 208 -369
206 -2 -2 -362 -615 -801 -1363 -438 -748 -803 -1366 -809 -1373 -10 -11 -12
-9 -9 10 3 12 40 255 84 538 l80 515 186 625 c102 344 187 633 190 642 4 13
-17 29 -91 68 -52 29 -95 55 -95 59 0 8 -385 227 -409 233 -8 2 -34 -58 -71
-164 -132 -378 -299 -765 -515 -1193 -204 -404 -308 -588 -1086 -1936 -83
-143 -363 -358 -548 -421 -96 -32 -199 -31 -267 4 -163 85 -258 345 -257 713
0 668 337 1672 786 2345 214 320 500 622 753 796 l83 57 197 -192 c159 -155
199 -190 209 -179 35 39 266 421 259 428 -5 5 -234 135 -508 291 -450 253
-502 280 -520 269 -118 -73 -469 -359 -654 -533 -822 -772 -1325 -1703 -1468
-2717 -23 -160 -26 -654 -6 -800 63 -443 206 -788 422 -1014 365 -383 848
-361 1349 59 178 150 383 389 558 652 54 81 226 376 383 655 157 278 286 505
287 504 3 -2 -255 -1340 -263 -1367 -3 -12 90 -57 435 -211 l439 -195 222 591
c206 549 239 628 462 1114 133 287 242 521 243 520 2 -2 -10 -86 -26 -188
-163 -1043 -220 -1660 -190 -2045 21 -262 52 -380 121 -458 102 -116 281 -125
652 -32 159 40 678 145 678 137 0 -32 -349 -393 -504 -520 -363 -299 -811
-534 -1251 -656 -337 -93 -545 -120 -925 -120 -316 0 -417 9 -675 60 -868 173
-1649 692 -2144 1424 -309 456 -489 930 -568 1490 -25 180 -25 694 0 865 104
697 358 1270 786 1774 570 672 1381 1098 2261 1190 122 12 539 13 661 1z
m2715 -1508 c185 -293 348 -679 433 -1024 79 -322 106 -575 98 -946 -7 -357
-41 -593 -132 -906 -63 -220 -80 -262 -113 -274 -15 -6 -44 -17 -64 -26 l-36
-16 30 83 c98 265 161 527 200 837 20 158 17 640 -5 804 -71 528 -242 1009
-508 1425 l-47 75 29 43 c17 24 34 41 39 38 5 -3 39 -54 76 -113z m-104 -144
c232 -391 380 -812 449 -1278 27 -177 37 -573 20 -761 -30 -328 -113 -682
-224 -958 l-34 -84 -94 -39 c-154 -64 -398 -144 -525 -173 -99 -22 -137 -26
-229 -23 -129 4 -177 24 -232 96 -54 71 -68 135 -67 307 0 214 27 378 179
1100 132 628 166 753 267 990 33 77 98 237 145 355 119 300 250 580 272 580 3
0 37 -51 73 -112z"/>
</g>
</svg>
