<svg width="28" height="20" viewBox="0 0 28 20" fill="none" xmlns="http://www.w3.org/2000/svg">
<path d="M16.2909 20H19.3455C19.8545 20 20.3636 19.5 20.3636 19V8.5C20.3636 8 19.8545 7.5 19.3455 7.5H16.2909C15.7818 7.5 15.2727 8 15.2727 8.5V19C15.2727 19.5 15.7818 20 16.2909 20ZM23.9273 20H26.9818C27.4909 20 28 19.5 28 19V1C28 0.5 27.4909 0 26.9818 0H23.9273C23.4182 0 22.9091 0.5 22.9091 1V19C22.9091 19.5 23.4182 20 23.9273 20ZM1.01818 20H4.07273C4.58182 20 5.09091 19.5 5.09091 19V13.5C5.09091 13 4.58182 12.5 4.07273 12.5H1.01818C0.509091 12.5 0 13 0 13.5V19C0 19.5 0.509091 20 1.01818 20ZM8.65455 20H11.7091C12.2182 20 12.7273 19.5 12.7273 19V3.5C12.7273 3 12.2182 2.5 11.7091 2.5H8.65455C8.14545 2.5 7.63636 3 7.63636 3.5V11.25V19C7.63636 19.5 8.14545 20 8.65455 20Z" fill="white"/>
</svg>
