<?xml version="1.0" standalone="no"?>
<!DOCTYPE svg PUBLIC "-//W3C//DTD SVG 20010904//EN"
 "http://www.w3.org/TR/2001/REC-SVG-20010904/DTD/svg10.dtd">
<svg version="1.0" xmlns="http://www.w3.org/2000/svg"
 width="23.000000pt" height="19.000000pt" viewBox="0 0 23.000000 19.000000"
 preserveAspectRatio="xMidYMid meet">

<g transform="translate(0.000000,19.000000) scale(0.100000,-0.100000)"
fill="#000000" stroke="none">
<path d="M50 165 c-7 -9 -10 -25 -6 -40 6 -22 11 -26 39 -23 25 2 33 8 35 26
7 44 -41 70 -68 37z"/>
<path d="M185 120 c-10 -11 -24 -16 -33 -13 -15 5 -15 4 1 -13 17 -18 18 -18
43 8 14 14 22 28 16 32 -5 3 -17 -3 -27 -14z"/>
<path d="M16 64 c-3 -9 -6 -24 -6 -35 0 -17 8 -19 70 -19 76 0 91 10 70 49 -9
18 -20 21 -69 21 -44 0 -60 -4 -65 -16z"/>
</g>
</svg>
