<svg width="23" height="19" viewBox="0 0 23 19" fill="none" xmlns="http://www.w3.org/2000/svg">
<path d="M8.12813 9.50735C10.4892 9.50735 12.4028 7.59377 12.4028 5.23268C12.4028 2.87159 10.4892 0.958008 8.12813 0.958008C5.76705 0.958008 3.85346 2.87159 3.85346 5.23268C3.85346 7.59377 5.76705 9.50735 8.12813 9.50735ZM11.1204 10.576H10.5627C9.8213 10.9167 8.99642 11.1104 8.12813 11.1104C7.25984 11.1104 6.4383 10.9167 5.69357 10.576H5.13586C2.65789 10.576 0.647461 12.5865 0.647461 15.0644V16.4537C0.647461 17.3387 1.36547 18.0567 2.25046 18.0567H14.0058C14.8908 18.0567 15.6088 17.3387 15.6088 16.4537V15.0644C15.6088 12.5865 13.5984 10.576 11.1204 10.576ZM21.9073 6.28799L20.9789 5.34957C20.8252 5.19261 20.5748 5.19261 20.4178 5.34623L16.9179 8.8194L15.3984 7.28987C15.2448 7.13291 14.9943 7.13291 14.8374 7.28653L13.8989 8.21827C13.742 8.37189 13.742 8.62236 13.8956 8.77932L16.624 11.5278C16.7777 11.6848 17.0281 11.6848 17.1851 11.5311L21.9039 6.84904C22.0575 6.69208 22.0609 6.44161 21.9073 6.28799Z" fill="#021470"/>
</svg>
