<svg width="26" height="19" viewBox="0 0 26 19" fill="none" xmlns="http://www.w3.org/2000/svg">
<path d="M3.9 8.14286C5.33406 8.14286 6.5 6.92567 6.5 5.42857C6.5 3.93147 5.33406 2.71429 3.9 2.71429C2.46594 2.71429 1.3 3.93147 1.3 5.42857C1.3 6.92567 2.46594 8.14286 3.9 8.14286ZM22.1 8.14286C23.5341 8.14286 24.7 6.92567 24.7 5.42857C24.7 3.93147 23.5341 2.71429 22.1 2.71429C20.6659 2.71429 19.5 3.93147 19.5 5.42857C19.5 6.92567 20.6659 8.14286 22.1 8.14286ZM23.4 9.5H20.8C20.085 9.5 19.4391 9.80112 18.9678 10.2888C20.605 11.2261 21.7669 12.9183 22.0187 14.9286H24.7C25.4191 14.9286 26 14.3221 26 13.5714V12.2143C26 10.7172 24.8341 9.5 23.4 9.5ZM13 9.5C15.5147 9.5 17.55 7.37522 17.55 4.75C17.55 2.12478 15.5147 0 13 0C10.4853 0 8.45 2.12478 8.45 4.75C8.45 7.37522 10.4853 9.5 13 9.5ZM16.12 10.8571H15.7828C14.9378 11.2812 13.9994 11.5357 13 11.5357C12.0006 11.5357 11.0662 11.2812 10.2172 10.8571H9.88C7.29625 10.8571 5.2 13.0455 5.2 15.7429V16.9643C5.2 18.0882 6.07344 19 7.15 19H18.85C19.9266 19 20.8 18.0882 20.8 16.9643V15.7429C20.8 13.0455 18.7037 10.8571 16.12 10.8571ZM7.03219 10.2888C6.56094 9.80112 5.915 9.5 5.2 9.5H2.6C1.16594 9.5 0 10.7172 0 12.2143V13.5714C0 14.3221 0.580937 14.9286 1.3 14.9286H3.97719C4.23312 12.9183 5.395 11.2261 7.03219 10.2888Z" fill="#021470"/>
</svg>
