<?xml version="1.0" standalone="no"?>
<!DOCTYPE svg PUBLIC "-//W3C//DTD SVG 20010904//EN"
 "http://www.w3.org/TR/2001/REC-SVG-20010904/DTD/svg10.dtd">
<svg version="1.0" xmlns="http://www.w3.org/2000/svg"
 width="38.000000pt" height="30.000000pt" viewBox="0 0 38.000000 30.000000"
 preserveAspectRatio="xMidYMid meet">

<g transform="translate(0.000000,30.000000) scale(0.100000,-0.100000)"
fill="#000000" stroke="none">
<path d="M57 294 c-12 -12 -8 -42 6 -47 21 -8 39 8 35 29 -3 19 -29 30 -41 18z"/>
<path d="M287 294 c-12 -12 -8 -42 6 -47 21 -8 39 8 35 29 -3 19 -29 30 -41
18z"/>
<path d="M42 208 c-5 -7 -13 -28 -17 -46 -6 -28 -3 -38 18 -60 13 -15 28 -44
31 -64 4 -24 12 -38 21 -38 22 0 19 72 -4 101 -10 12 -16 30 -14 40 4 14 8 14
30 -7 20 -19 37 -24 75 -24 52 0 108 22 109 43 0 6 4 3 9 -8 5 -14 2 -26 -11
-41 -24 -25 -27 -104 -4 -104 9 0 17 14 21 38 3 20 18 49 31 64 22 23 24 31
17 64 -16 65 -61 71 -91 13 -13 -24 -13 -24 -13 9 l0 32 -60 0 c-59 0 -60 -1
-60 -27 -1 -26 -1 -27 -12 -8 -20 36 -56 47 -76 23z"/>
<path d="M11 49 c-8 -24 -8 -36 0 -43 14 -14 41 21 37 48 -5 32 -25 29 -37 -5z"/>
<path d="M337 73 c-11 -11 -8 -38 7 -59 22 -30 39 -7 25 34 -11 32 -19 38 -32
25z"/>
</g>
</svg>
