<svg width="26" height="19" viewBox="0 0 26 19" fill="none" xmlns="http://www.w3.org/2000/svg">
<path d="M18.7778 6.63265C18.7778 2.96811 14.5753 0 9.38889 0C4.20243 0 0 2.96811 0 6.63265C0 8.05453 0.636458 9.36448 1.71528 10.4464C1.11042 11.6983 0.112847 12.6932 0.0993056 12.7057C0 12.801 -0.0270833 12.942 0.0315972 13.0663C0.0902778 13.1907 0.216667 13.2653 0.361111 13.2653C2.01319 13.2653 3.3809 12.7554 4.36493 12.229C5.8184 12.8798 7.53819 13.2653 9.38889 13.2653C14.5753 13.2653 18.7778 10.2972 18.7778 6.63265ZM24.2847 15.7526C25.3635 14.6747 26 13.3607 26 11.9388C26 9.1655 23.5851 6.79018 20.1635 5.79943C20.2042 6.07302 20.2222 6.35077 20.2222 6.63265C20.2222 11.0226 15.3608 14.5918 9.38889 14.5918C8.90139 14.5918 8.42743 14.5587 7.95799 14.5131C9.37986 16.8967 12.7201 18.5714 16.6111 18.5714C18.4618 18.5714 20.1816 18.1901 21.6351 17.5351C22.6191 18.0615 23.9868 18.5714 25.6389 18.5714C25.7833 18.5714 25.9142 18.4927 25.9684 18.3724C26.0271 18.2522 26 18.1113 25.9007 18.0118C25.8872 17.9994 24.8896 17.0086 24.2847 15.7526Z" fill="#021470"/>
</svg>
