<?xml version="1.0" encoding="iso-8859-1"?>
<!-- Generator: Adobe Illustrator 19.0.0, SVG Export Plug-In . SVG Version: 6.00 Build 0)  -->
<svg version="1.1" id="Layer_1" xmlns="http://www.w3.org/2000/svg" xmlns:xlink="http://www.w3.org/1999/xlink" x="0px" y="0px"
	 viewBox="0 0 512 512" style="enable-background:new 0 0 512 512;" xml:space="preserve">
<path style="fill:#9E9E9E;" d="M336.843,199.412v59.285c0,44.647-36.196,80.843-80.843,80.843s-80.843-36.196-80.843-80.843v-59.285
	H336.843z"/>
<path style="fill:#ECF0F1;" d="M336.843,91.622v107.79H175.157V91.622c0-44.658,36.196-80.843,80.843-80.843
	c22.323,0,42.534,9.044,57.161,23.671C327.788,49.088,336.843,69.288,336.843,91.622z"/>
<path style="fill:#2196F3;" d="M377.264,501.221H134.736l0,0c0-29.765,24.13-53.895,53.895-53.895h134.738
	C353.134,447.326,377.264,471.455,377.264,501.221L377.264,501.221z"/>
<g>
	<path style="fill:#231F20;" d="M430.62,160.603c-5.953,0-10.779,4.826-10.779,10.779v17.251h-72.22V91.622
		c0-24.463-9.53-47.473-26.839-64.794C303.483,9.528,280.475,0,256,0c-50.52,0-91.622,41.102-91.622,91.622v97.011h-72.22v-17.251
		c0-5.953-4.826-10.779-10.779-10.779c-5.953,0-10.779,4.826-10.779,10.779v56.051c0,5.953,4.826,10.779,10.779,10.779
		c5.953,0,10.779-4.826,10.779-10.779v-17.242h23.714v48.501c0,73.64,57.099,134.195,129.348,139.717v38.137h-56.59
		c-35.661,0-64.674,29.013-64.674,64.674c0,5.953,4.826,10.779,10.779,10.779h242.528c5.953,0,10.779-4.826,10.779-10.779
		c0-35.661-29.013-64.674-64.674-64.674h-56.59v-38.137c72.25-5.522,129.348-66.077,129.348-139.717v-48.501h23.714v17.242
		c0,5.953,4.826,10.779,10.779,10.779s10.779-4.826,10.779-10.779v-56.051C441.399,165.429,436.574,160.603,430.62,160.603z
		 M365.121,490.442H146.878c4.798-18.576,21.698-32.337,41.752-32.337h134.738C343.422,458.105,360.323,471.866,365.121,490.442z
		 M185.936,210.191h140.127v21.015h-38.266c-5.953,0-10.779,4.826-10.779,10.779s4.826,10.779,10.779,10.779h38.266v5.933
		c0,38.633-31.431,70.064-70.064,70.064s-70.064-31.431-70.064-70.064L185.936,210.191L185.936,210.191z M185.936,91.622
		c0-38.633,31.431-70.064,70.064-70.064c18.717,0,36.311,7.286,49.537,20.51c13.237,13.247,20.527,30.845,20.527,49.553v97.011
		H185.936L185.936,91.622L185.936,91.622z M374.569,258.693c0,65.379-53.19,118.569-118.569,118.569s-118.569-53.19-118.569-118.569
		v-48.501h26.948v48.506c0,50.52,41.102,91.622,91.622,91.622s91.622-41.102,91.622-91.622v-48.506h26.948V258.693z"/>
	<path style="fill:#231F20;" d="M231.769,134.554c-5.953,0-10.779,4.826-10.779,10.779v11.857c0,5.953,4.826,10.779,10.779,10.779
		c5.953,0,10.779-4.826,10.779-10.779v-11.857C242.548,139.379,237.722,134.554,231.769,134.554z"/>
	<path style="fill:#231F20;" d="M231.769,76.347c-5.953,0-10.779,4.826-10.779,10.779v11.857c0,5.953,4.826,10.779,10.779,10.779
		c5.953,0,10.779-4.826,10.779-10.779V87.126C242.548,81.173,237.722,76.347,231.769,76.347z"/>
	<path style="fill:#231F20;" d="M280.231,76.347c-5.953,0-10.779,4.826-10.779,10.779v11.857c0,5.953,4.826,10.779,10.779,10.779
		s10.779-4.826,10.779-10.779V87.126C291.01,81.173,286.185,76.347,280.231,76.347z"/>
	<path style="fill:#231F20;" d="M280.231,134.554c-5.953,0-10.779,4.826-10.779,10.779v11.857c0,5.953,4.826,10.779,10.779,10.779
		s10.779-4.826,10.779-10.779v-11.857C291.01,139.379,286.185,134.554,280.231,134.554z"/>
	<path style="fill:#231F20;" d="M234.442,252.764h9.701c5.953,0,10.779-4.826,10.779-10.779s-4.826-10.779-10.779-10.779h-9.701
		c-5.953,0-10.779,4.826-10.779,10.779S228.489,252.764,234.442,252.764z"/>
</g>
<g>
</g>
<g>
</g>
<g>
</g>
<g>
</g>
<g>
</g>
<g>
</g>
<g>
</g>
<g>
</g>
<g>
</g>
<g>
</g>
<g>
</g>
<g>
</g>
<g>
</g>
<g>
</g>
<g>
</g>
</svg>
