<svg width="27" height="18" viewBox="0 0 27 18" fill="none" xmlns="http://www.w3.org/2000/svg">
<path d="M4.67539 7.56122C6.10945 7.56122 7.27539 6.43098 7.27539 5.04082C7.27539 3.65065 6.10945 2.52041 4.67539 2.52041C3.24133 2.52041 2.07539 3.65065 2.07539 5.04082C2.07539 6.43098 3.24133 7.56122 4.67539 7.56122ZM22.8754 7.56122C24.3095 7.56122 25.4754 6.43098 25.4754 5.04082C25.4754 3.65065 24.3095 2.52041 22.8754 2.52041C21.4413 2.52041 20.2754 3.65065 20.2754 5.04082C20.2754 6.43098 21.4413 7.56122 22.8754 7.56122ZM24.1754 8.82143H21.5754C20.8604 8.82143 20.2145 9.10104 19.7432 9.55392C21.3804 10.4242 22.5423 11.9956 22.7941 13.8622H25.4754C26.1945 13.8622 26.7754 13.2991 26.7754 12.602V11.3418C26.7754 9.95167 25.6095 8.82143 24.1754 8.82143ZM13.7754 8.82143C16.2901 8.82143 18.3254 6.84842 18.3254 4.41071C18.3254 1.97301 16.2901 0 13.7754 0C11.2607 0 9.22539 1.97301 9.22539 4.41071C9.22539 6.84842 11.2607 8.82143 13.7754 8.82143ZM16.8954 10.0816H16.5582C15.7132 10.4754 14.7748 10.7117 13.7754 10.7117C12.776 10.7117 11.8416 10.4754 10.9926 10.0816H10.6554C8.07164 10.0816 5.97539 12.1137 5.97539 14.6184V15.7525C5.97539 16.7962 6.84883 17.6429 7.92539 17.6429H19.6254C20.702 17.6429 21.5754 16.7962 21.5754 15.7525V14.6184C21.5754 12.1137 19.4791 10.0816 16.8954 10.0816ZM7.80758 9.55392C7.33633 9.10104 6.69039 8.82143 5.97539 8.82143H3.37539C1.94133 8.82143 0.775391 9.95167 0.775391 11.3418V12.602C0.775391 13.2991 1.35633 13.8622 2.07539 13.8622H4.75258C5.00852 11.9956 6.17039 10.4242 7.80758 9.55392Z" fill="#021470"/>
</svg>
