<?xml version="1.0" standalone="no"?>
<!DOCTYPE svg PUBLIC "-//W3C//DTD SVG 20010904//EN"
 "http://www.w3.org/TR/2001/REC-SVG-20010904/DTD/svg10.dtd">
<svg version="1.0" xmlns="http://www.w3.org/2000/svg"
 width="22.000000pt" height="16.000000pt" viewBox="0 0 22.000000 16.000000"
 preserveAspectRatio="xMidYMid meet">

<g transform="translate(0.000000,16.000000) scale(0.100000,-0.100000)"
fill="#000000" stroke="none">
<path d="M86 144 c-20 -19 -20 -29 0 -48 14 -14 18 -14 39 2 29 20 30 26 9 46
-19 20 -29 20 -48 0z"/>
<path d="M16 121 c-3 -5 0 -14 8 -20 10 -8 16 -8 25 2 6 8 8 17 4 20 -9 10
-31 9 -37 -2z"/>
<path d="M146 95 c-27 -21 -27 -52 1 -70 21 -14 25 -14 46 0 28 18 28 49 1 70
-10 8 -21 14 -24 14 -3 0 -14 -6 -24 -14z m34 -35 c0 -21 -15 -27 -25 -10 -7
12 2 30 16 30 5 0 9 -9 9 -20z"/>
<path d="M5 70 c-8 -13 3 -30 18 -30 7 0 18 9 25 20 11 18 10 20 -12 20 -14 0
-28 -4 -31 -10z"/>
<path d="M63 63 c-7 -2 -13 -16 -13 -29 0 -22 4 -24 42 -24 33 0 39 3 30 12
-7 7 -12 20 -12 30 0 18 -20 22 -47 11z"/>
</g>
</svg>
