<svg width="22" height="16" viewBox="0 0 22 16" fill="none" xmlns="http://www.w3.org/2000/svg">
<path d="M20.7517 10.6789C20.8385 10.2079 20.8385 9.7269 20.7517 9.25591L21.6134 8.7582C21.7136 8.70142 21.757 8.58451 21.7236 8.47428C21.4998 7.75276 21.1157 7.09806 20.6147 6.55692C20.5379 6.47342 20.4143 6.45337 20.3141 6.51016L19.4524 7.00787C19.0884 6.69722 18.6709 6.45672 18.22 6.29638V5.30096C18.22 5.18739 18.1398 5.08718 18.0296 5.0638C17.2848 4.89678 16.5266 4.90346 15.8186 5.0638C15.7084 5.08718 15.6282 5.18739 15.6282 5.30096V6.29638C15.1773 6.45672 14.7598 6.69722 14.3958 7.00787L13.5341 6.51016C13.4372 6.45337 13.3103 6.47342 13.2335 6.55692C12.7325 7.09806 12.3484 7.75276 12.1246 8.47428C12.0912 8.58451 12.138 8.70142 12.2348 8.7582L13.0965 9.25591C13.0097 9.7269 13.0097 10.2079 13.0965 10.6789L12.2348 11.1766C12.1346 11.2334 12.0912 11.3503 12.1246 11.4605C12.3484 12.182 12.7325 12.8334 13.2335 13.3779C13.3103 13.4614 13.4339 13.4814 13.5341 13.4247L14.3958 12.9269C14.7598 13.2376 15.1773 13.4781 15.6282 13.6384V14.6339C15.6282 14.7474 15.7084 14.8476 15.8186 14.871C16.5634 15.038 17.3215 15.0314 18.0296 14.871C18.1398 14.8476 18.22 14.7474 18.22 14.6339V13.6384C18.6709 13.4781 19.0884 13.2376 19.4524 12.9269L20.3141 13.4247C20.411 13.4814 20.5379 13.4614 20.6147 13.3779C21.1157 12.8368 21.4998 12.182 21.7236 11.4605C21.757 11.3503 21.7102 11.2334 21.6134 11.1766L20.7517 10.6789ZM16.9274 11.5875C16.0323 11.5875 15.3076 10.8593 15.3076 9.96741C15.3076 9.07554 16.0357 8.34734 16.9274 8.34734C17.8192 8.34734 18.5473 9.07554 18.5473 9.96741C18.5473 10.8593 17.8225 11.5875 16.9274 11.5875ZM3.56767 6.76069C4.74667 6.76069 5.70523 5.80201 5.70523 4.62287C5.70523 3.44373 4.74667 2.48506 3.56767 2.48506C2.38867 2.48506 1.43011 3.44373 1.43011 4.62287C1.43011 5.80201 2.38867 6.76069 3.56767 6.76069ZM11.0491 7.82959C11.1126 7.82959 11.1727 7.81289 11.2362 7.80955C11.5134 7.0847 11.9209 6.40327 12.4486 5.83207C12.6957 5.56485 13.0464 5.41119 13.4138 5.41119C13.6443 5.41119 13.8714 5.47132 14.0684 5.58823L14.3323 5.74188C14.359 5.72518 14.3857 5.71182 14.4125 5.69512C14.6463 5.20743 14.7865 4.6663 14.7865 4.09176C14.7865 2.02409 13.1132 0.350586 11.0458 0.350586C8.97837 0.350586 7.3084 2.02075 7.3084 4.08842C7.3084 6.15609 8.98171 7.82959 11.0491 7.82959ZM14.5628 14.3265C14.4859 14.2865 14.4091 14.2397 14.3356 14.1963C14.0618 14.3566 13.8246 14.5236 13.4172 14.5236C13.0531 14.5236 12.7024 14.37 12.4519 14.1027C11.8407 13.4414 11.3731 12.6363 11.1093 11.7779C10.7519 10.6255 11.9409 10.1177 11.971 10.0977C11.9676 10.0108 11.9676 9.92398 11.971 9.83713L11.7071 9.68348C11.5802 9.60999 11.4733 9.51646 11.3798 9.41291C11.2696 9.41959 11.1627 9.43295 11.0525 9.43295C10.2309 9.43295 9.46266 9.23253 8.76462 8.8985H8.4874C6.35986 8.8985 4.63645 10.6221 4.63645 12.7466V13.7086C4.63645 14.5938 5.35454 15.3119 6.23962 15.3119H14.7698C14.6463 15.1115 14.5628 14.8844 14.5628 14.6339V14.3265ZM6.14276 8.45089C5.75533 8.06676 5.22428 7.82959 4.63645 7.82959H2.49889C1.31989 7.82959 0.361328 8.78827 0.361328 9.96741V11.0363C0.361328 11.6276 0.83894 12.1052 1.43011 12.1052H3.63113C3.84155 10.5219 4.79677 9.18911 6.14276 8.45089Z" fill="#021470"/>
</svg>
