<svg width="145" height="21" viewBox="0 0 145 21" fill="none" xmlns="http://www.w3.org/2000/svg">
<path fill-rule="evenodd" clip-rule="evenodd" d="M2 0C0.895431 0 0 0.895431 0 2C0 3.10457 0.895431 4 2 4H44.8635L43.35 20H47.22L48.48 5.9L53.79 20.54L57.36 20.21L62.64 5.96L64.02 20H67.92L66.09 0.0199997H60.69L55.74 14.36L50.64 0.0199997H47.2839C47.1912 0.00681859 47.0964 0 47 0H2ZM74.284 19.43C75.484 20.11 76.864 20.45 78.424 20.45C79.964 20.45 81.324 20.11 82.504 19.43C83.704 18.73 84.624 17.76 85.264 16.52C85.924 15.26 86.254 13.82 86.254 12.2C86.254 10.6 85.924 9.19 85.264 7.97C84.624 6.75 83.704 5.81 82.504 5.15C81.324 4.47 79.954 4.13 78.394 4.13C76.834 4.13 75.454 4.47 74.254 5.15C73.074 5.83 72.154 6.79 71.494 8.03C70.854 9.25 70.534 10.67 70.534 12.29C70.534 13.91 70.864 15.34 71.524 16.58C72.184 17.8 73.104 18.75 74.284 19.43ZM80.974 15.56C80.334 16.38 79.474 16.79 78.394 16.79C77.314 16.79 76.444 16.38 75.784 15.56C75.144 14.72 74.824 13.62 74.824 12.26C74.824 10.9 75.144 9.82 75.784 9.02C76.444 8.2 77.314 7.79 78.394 7.79C79.474 7.79 80.334 8.2 80.974 9.02C81.634 9.82 81.964 10.9 81.964 12.26C81.964 13.62 81.634 14.72 80.974 15.56ZM92.063 4.19L87.443 4.61L92.903 20H97.853L103.283 4.55H98.753L95.483 15.32L92.063 4.19ZM106.59 18.29C108.03 19.73 110 20.45 112.5 20.45C113.5 20.45 114.48 20.33 115.44 20.09C116.42 19.87 117.31 19.55 118.11 19.13L117.42 15.74C116.82 16.06 116.12 16.32 115.32 16.52C114.52 16.7 113.75 16.79 113.01 16.79C111.79 16.79 110.82 16.52 110.1 15.98C109.38 15.42 108.92 14.61 108.72 13.55H118.92C118.94 13.33 118.95 12.99 118.95 12.53C118.95 9.81 118.35 7.73 117.15 6.29C115.95 4.85 114.23 4.13 111.99 4.13C110.47 4.13 109.14 4.46 108 5.12C106.88 5.78 106.01 6.73 105.39 7.97C104.77 9.19 104.46 10.63 104.46 12.29C104.46 14.85 105.17 16.85 106.59 18.29ZM114 8.33C114.54 8.83 114.84 9.51 114.9 10.37H108.69C108.83 9.49 109.17 8.8 109.71 8.3C110.27 7.8 110.98 7.55 111.84 7.55C112.74 7.55 113.46 7.81 114 8.33ZM126.434 4.55H122.204V20H126.434V10.94C126.934 10.32 127.314 9.86 127.574 9.56C127.854 9.26 128.164 9.02 128.504 8.84C128.864 8.66 129.274 8.57 129.734 8.57C130.054 8.57 130.474 8.64 130.994 8.78L131.444 4.22C131.204 4.14 130.904 4.1 130.544 4.1C129.684 4.1 128.964 4.34 128.384 4.82C127.824 5.3 127.254 6.05 126.674 7.07H126.434V4.55ZM135.424 20.15C136.344 20.35 137.294 20.45 138.274 20.45C140.214 20.45 141.774 20.04 142.954 19.22C144.134 18.4 144.724 17.17 144.724 15.53C144.724 14.55 144.514 13.75 144.094 13.13C143.674 12.49 143.184 12.01 142.624 11.69C142.064 11.37 141.364 11.04 140.524 10.7C140.424 10.66 140.074 10.53 139.474 10.31C138.714 10.05 138.174 9.82 137.854 9.62C137.534 9.42 137.374 9.12 137.374 8.72C137.374 8.3 137.564 7.98 137.944 7.76C138.344 7.54 138.874 7.43 139.534 7.43C140.174 7.43 140.854 7.54 141.574 7.76C142.314 7.96 142.974 8.23 143.554 8.57L144.124 5C142.484 4.42 140.924 4.13 139.444 4.13C137.564 4.13 136.034 4.57 134.854 5.45C133.694 6.31 133.114 7.52 133.114 9.08C133.114 10.06 133.334 10.85 133.774 11.45C134.214 12.05 134.704 12.5 135.244 12.8C135.784 13.08 136.484 13.38 137.344 13.7L138.154 14C139.054 14.32 139.664 14.59 139.984 14.81C140.304 15.01 140.464 15.3 140.464 15.68C140.464 16.16 140.234 16.53 139.774 16.79C139.314 17.03 138.744 17.15 138.064 17.15C137.344 17.15 136.574 17.02 135.754 16.76C134.934 16.5 134.184 16.16 133.504 15.74L133.114 19.34C133.754 19.68 134.524 19.95 135.424 20.15Z" fill="white"/>
</svg>
