<svg width="25" height="20" viewBox="0 0 25 20" fill="none" xmlns="http://www.w3.org/2000/svg">
<path d="M12.498 15H4.998V8.75H2.498V18.75C2.498 19.4414 3.05659 20 3.748 20H13.748C14.4394 20 14.998 19.4414 14.998 18.75V8.75H12.498V15ZM24.7871 5.55469L21.455 0.554688C21.2207 0.207031 20.83 0 20.4121 0H4.58394C4.16597 0 3.77534 0.207031 3.54488 0.554688L0.212844 5.55469C-0.341843 6.38672 0.251906 7.5 1.25191 7.5H23.748C24.7441 7.5 25.3378 6.38672 24.7871 5.55469ZM19.998 19.375C19.998 19.7188 20.2792 20 20.623 20H21.873C22.2167 20 22.498 19.7188 22.498 19.375V8.75H19.998V19.375Z" fill="#021470"/>
</svg>
