<svg width="147" height="147" viewBox="0 0 147 147" fill="none" xmlns="http://www.w3.org/2000/svg">
<path d="M147 73.5C147 114.093 114.093 147 73.5 147C32.907 147 0 114.093 0 73.5C0 32.907 32.907 0 73.5 0C114.093 0 147 32.907 147 73.5ZM64.9983 112.418L119.531 57.8854C121.382 56.0337 121.382 53.0311 119.531 51.1794L112.825 44.4734C110.973 42.6214 107.97 42.6214 106.118 44.4734L61.6452 88.9463L40.8817 68.1828C39.03 66.3311 36.0274 66.3311 34.1754 68.1828L27.4694 74.8888C25.6177 76.7405 25.6177 79.743 27.4694 81.5948L58.292 112.417C60.144 114.269 63.1463 114.269 64.9983 112.418Z" fill="#1F7B08"/>
</svg>
